ffmpeg started on 2016-12-05 at 07:26:49
Report written to "Output/x264/results/ffmpeg/crowd_run_2160p50veryfast12000k.log"
Command line:
Tools/ffmpeg/ffmpeg -benchmark -y -i Input/y4m/crowd_run_2160p50.y4m -c:v libx264 -preset veryfast -b:v 12000k -an Output/x264/encoded/crowd_run_2160p50veryfast12000k.mkv
ffmpeg version N-82227-gdb23fde Copyright (c) 2000-2016 the FFmpeg developers
  built with gcc 5.4.0 (Ubuntu 5.4.0-6ubuntu1~16.04.2) 20160609
  configuration: --prefix=/home/jaroslav/ffmpeg_build --pkg-config-flags=--static --extra-cflags=-I/home/jaroslav/ffmpeg_build/include --extra-ldflags=-L/home/jaroslav/ffmpeg_build/lib --bindir=/home/jaroslav/bin --enable-gpl --enable-libass --enable-libfdk-aac --enable-libfreetype --enable-libmp3lame --enable-libopus --enable-libtheora --enable-libvorbis --enable-libvpx --enable-libx264 --enable-libx265 --enable-nvenc --enable-libmfx --enable-libxvid --enable-libgsm --enable-libopencore-amrnb --enable-version3 --enable-nonfree
  libavutil      55. 35.100 / 55. 35.100
  libavcodec     57. 66.101 / 57. 66.101
  libavformat    57. 57.100 / 57. 57.100
  libavdevice    57.  2.100 / 57.  2.100
  libavfilter     6. 66.100 /  6. 66.100
  libswscale      4.  3.100 /  4.  3.100
  libswresample   2.  4.100 /  2.  4.100
  libpostproc    54.  2.100 / 54.  2.100
Input #0, yuv4mpegpipe, from 'Input/y4m/crowd_run_2160p50.y4m':
  Duration: 00:00:10.00, start: 0.000000, bitrate: 4976642 kb/s
    Stream #0:0: Video: rawvideo (I420 / 0x30323449), yuv420p(progressive), 3840x2160, SAR 1:1 DAR 16:9, 50 fps, 50 tbr, 50 tbn, 50 tbc
[libx264 @ 0x39811c0] using SAR=1/1
[libx264 @ 0x39811c0] using cpu capabilities: MMX2 SSE2Fast SSSE3 SSE4.2 AVX FMA3 AVX2 LZCNT BMI2
[libx264 @ 0x39811c0] profile High, level 5.2
[libx264 @ 0x39811c0] 264 - core 148 - H.264/MPEG-4 AVC codec - Copyleft 2003-2016 - http://www.videolan.org/x264.html - options: cabac=1 ref=1 deblock=1:0:0 analyse=0x3:0x113 me=hex subme=2 psy=1 psy_rd=1.00:0.00 mixed_ref=0 me_range=16 chroma_me=1 trellis=0 8x8dct=1 cqm=0 deadzone=21,11 fast_pskip=1 chroma_qp_offset=0 threads=6 lookahead_threads=2 sliced_threads=0 nr=0 decimate=1 interlaced=0 bluray_compat=0 constrained_intra=0 bframes=3 b_pyramid=2 b_adapt=1 b_bias=0 direct=1 weightb=1 open_gop=0 weightp=1 keyint=250 keyint_min=25 scenecut=40 intra_refresh=0 rc_lookahead=10 rc=abr mbtree=1 bitrate=12000 ratetol=1.0 qcomp=0.60 qpmin=0 qpmax=69 qpstep=4 ip_ratio=1.40 aq=1:1.00
Output #0, matroska, to 'Output/x264/encoded/crowd_run_2160p50veryfast12000k.mkv':
  Metadata:
    encoder         : Lavf57.57.100
    Stream #0:0: Video: h264 (libx264) (H264 / 0x34363248), yuv420p, 3840x2160 [SAR 1:1 DAR 16:9], q=-1--1, 12000 kb/s, 50 fps, 1k tbn, 50 tbc
    Metadata:
      encoder         : Lavc57.66.101 libx264
    Side data:
      cpb: bitrate max/min/avg: 0/0/12000000 buffer size: 0 vbv_delay: -1
Stream mapping:
  Stream #0:0 -> #0:0 (rawvideo (native) -> h264 (libx264))
Press [q] to stop, [?] for help
frame=   15 fps=0.0 q=0.0 size=       0kB time=00:00:00.00 bitrate=N/A speed=   0x    frame=   22 fps= 18 q=33.0 size=       1kB time=-00:00:00.01 bitrate=N/A speed=N/A    frame=   31 fps= 18 q=43.0 size=       1kB time=00:00:00.16 bitrate=  36.4kbits/s speed=0.0912x    frame=   44 fps= 19 q=46.0 size=       1kB time=00:00:00.42 bitrate=  13.9kbits/s speed=0.186x    frame=   58 fps= 21 q=44.0 size=       1kB time=00:00:00.70 bitrate=   8.4kbits/s speed=0.25x    frame=   72 fps= 22 q=44.0 size=       1kB time=00:00:00.98 bitrate=   6.0kbits/s speed=0.296x    frame=   85 fps= 22 q=43.0 size=       1kB time=00:00:01.24 bitrate=   4.7kbits/s speed=0.323x    frame=   98 fps= 22 q=43.0 size=       1kB time=00:00:01.50 bitrate=   3.9kbits/s speed=0.344x    frame=  111 fps= 23 q=42.0 size=       1kB time=00:00:01.76 bitrate=   3.3kbits/s speed=0.361x    frame=  124 fps= 23 q=42.0 size=       1kB time=00:00:02.02 bitrate=   2.9kbits/s speed=0.375x    frame=  137 fps= 23 q=42.0 size=       1kB time=00:00:02.28 bitrate=   2.6kbits/s speed=0.386x    frame=  142 fps= 22 q=42.0 size=       1kB time=00:00:02.38 bitrate=   2.5kbits/s speed=0.37x    frame=  154 fps= 22 q=42.0 size=       1kB time=00:00:02.62 bitrate=   2.2kbits/s speed=0.378x    frame=  163 fps= 22 q=42.0 size=       1kB time=00:00:02.80 bitrate=   2.1kbits/s speed=0.376x    frame=  178 fps= 22 q=42.0 size=       1kB time=00:00:03.10 bitrate=   1.9kbits/s speed=0.387x    frame=  190 fps= 22 q=42.0 size=    5122kB time=00:00:03.34 bitrate=12558.5kbits/s speed=0.391x    frame=  203 fps= 22 q=42.0 size=    5122kB time=00:00:03.60 bitrate=11651.8kbits/s speed=0.398x    frame=  211 fps= 22 q=42.0 size=    5122kB time=00:00:03.76 bitrate=11156.1kbits/s speed=0.388x    frame=  225 fps= 22 q=42.0 size=    5122kB time=00:00:04.04 bitrate=10383.1kbits/s speed=0.394x    frame=  238 fps= 22 q=42.0 size=    5122kB time=00:00:04.30 bitrate=9755.4kbits/s speed=0.399x    frame=  251 fps= 22 q=42.0 size=    5122kB time=00:00:04.56 bitrate=9199.3kbits/s speed=0.404x    frame=  264 fps= 22 q=42.0 size=    5122kB time=00:00:04.82 bitrate=8703.2kbits/s speed=0.407x    frame=  275 fps= 22 q=42.0 size=    7459kB time=00:00:05.04 bitrate=12122.2kbits/s speed=0.407x    frame=  281 fps= 22 q=42.0 size=    7459kB time=00:00:05.16 bitrate=11840.4kbits/s speed=0.398x    frame=  294 fps= 22 q=42.0 size=    7459kB time=00:00:05.42 bitrate=11272.5kbits/s speed=0.402x    frame=  308 fps= 22 q=42.0 size=    7459kB time=00:00:05.70 bitrate=10718.8kbits/s speed=0.406x    frame=  321 fps= 22 q=42.0 size=    7459kB time=00:00:05.96 bitrate=10251.3kbits/s speed=0.409x    frame=  334 fps= 22 q=42.0 size=    7459kB time=00:00:06.22 bitrate=9822.9kbits/s speed=0.412x    frame=  347 fps= 22 q=42.0 size=    7459kB time=00:00:06.48 bitrate=9428.8kbits/s speed=0.415x    frame=  359 fps= 22 q=42.0 size=    7459kB time=00:00:06.72 bitrate=9092.1kbits/s speed=0.417x    frame=  368 fps= 22 q=42.0 size=    7459kB time=00:00:06.90 bitrate=8855.0kbits/s speed=0.414x    frame=  378 fps= 22 q=42.0 size=    7459kB time=00:00:07.10 bitrate=8605.6kbits/s speed=0.412x    frame=  392 fps= 22 q=42.0 size=    7459kB time=00:00:07.38 bitrate=8279.1kbits/s speed=0.415x    frame=  404 fps= 22 q=42.0 size=    7459kB time=00:00:07.62 bitrate=8018.4kbits/s speed=0.417x    frame=  416 fps= 22 q=42.0 size=    7459kB time=00:00:07.86 bitrate=7773.6kbits/s speed=0.418x    frame=  426 fps= 22 q=42.0 size=    7459kB time=00:00:08.06 bitrate=7580.7kbits/s speed=0.416x    frame=  440 fps= 22 q=42.0 size=    7459kB time=00:00:08.34 bitrate=7326.2kbits/s speed=0.418x    frame=  453 fps= 22 q=42.0 size=   12601kB time=00:00:08.60 bitrate=12001.7kbits/s speed=0.42x    frame=  463 fps= 22 q=42.0 size=   12601kB time=00:00:08.80 bitrate=11728.9kbits/s speed=0.414x    frame=  476 fps= 22 q=42.0 size=   12601kB time=00:00:09.06 bitrate=11392.4kbits/s speed=0.416x    frame=  487 fps= 22 q=42.0 size=   12601kB time=00:00:09.28 bitrate=11122.3kbits/s speed=0.412x    frame=  500 fps= 22 q=42.0 size=   12601kB time=00:00:09.54 bitrate=10819.2kbits/s speed=0.414x    frame=  500 fps= 21 q=-1.0 Lsize=   14701kB time=00:00:09.94 bitrate=12114.9kbits/s speed=0.422x    
video:14697kB audio:0kB subtitle:0kB other streams:0kB global headers:0kB muxing overhead: 0.030672%
bench: utime=72.136s
bench: maxrss=1090368kB
[libx264 @ 0x39811c0] frame I:2     Avg QP:32.65  size:422708
[libx264 @ 0x39811c0] frame P:126   Avg QP:40.79  size: 64047
[libx264 @ 0x39811c0] frame B:372   Avg QP:43.31  size: 16488
[libx264 @ 0x39811c0] consecutive B-frames:  0.8%  0.0%  0.0% 99.2%
[libx264 @ 0x39811c0] mb I  I16..4: 16.9% 57.6% 25.5%
[libx264 @ 0x39811c0] mb P  I16..4:  5.9% 12.1%  0.0%  P16..4: 22.3%  8.6%  2.4%  0.0%  0.0%    skip:48.6%
[libx264 @ 0x39811c0] mb B  I16..4:  0.8%  0.6%  0.0%  B16..8: 14.1%  2.9%  0.1%  direct: 2.6%  skip:79.0%  L0:42.6% L1:53.8% BI: 3.5%
[libx264 @ 0x39811c0] final ratefactor: 33.65
[libx264 @ 0x39811c0] 8x8 transform intra:62.4% inter:47.0%
[libx264 @ 0x39811c0] coded y,uvDC,uvAC intra: 29.8% 44.2% 13.2% inter: 1.8% 5.2% 0.1%
[libx264 @ 0x39811c0] i16 v,h,dc,p: 44% 25% 20% 10%
[libx264 @ 0x39811c0] i8 v,h,dc,ddl,ddr,vr,hd,vl,hu: 19% 14% 36%  5%  4%  5%  5%  6%  6%
[libx264 @ 0x39811c0] i4 v,h,dc,ddl,ddr,vr,hd,vl,hu: 19% 16% 11%  9%  9%  9%  8%  9%  9%
[libx264 @ 0x39811c0] i8c dc,h,v,p: 69% 10% 17%  3%
[libx264 @ 0x39811c0] Weighted P-Frames: Y:1.6% UV:0.0%
[libx264 @ 0x39811c0] kb/s:12039.13
